<?xml version="1.0" standalone="no"?>
<!DOCTYPE svg PUBLIC "-//W3C//DTD SVG 1.1//EN" "http://www.w3.org/Graphics/SVG/1.1/DTD/svg11.dtd">
<svg xmlns="http://www.w3.org/2000/svg">
<metadata>Generated by Fontastic.me</metadata>
<defs>
<font id="icons" horiz-adv-x="512">
<font-face font-family="icons" units-per-em="512" ascent="480" descent="-32"/>
<missing-glyph horiz-adv-x="512" />

<glyph unicode="&#97;" d="M284 496c-77 0-146-39-187-98 9-5 17-13 25-23 31 46 81 79 138 86l24-40 23 40c89-11 159-81 170-170l-40-24 40-23c-7-59-41-110-89-141 3-7 5-14 5-21 0-6 0-11-2-16 72 39 121 115 121 201 0 126-102 229-228 229z m58-376c-53 42-67 21-91-2-17-17-59 18-95 54-37 36-72 79-55 95 24 24 45 39 3 91-43 53-71 13-94-10-27-27-1-127 97-225 98-98 197-123 224-97 23 23 64 52 11 94z m-160 112c0 47 55 55 55 73 0 9-7 13-14 13-12 0-19-14-19-14l-23 16c0 0 12 27 45 27 21 0 43-12 43-39 0-39-51-47-52-63l54 0 0-27-88 0c-1 5-1 10-1 14z m102 36l49 77 38 0 0-71 15 0 0-25-15 0 0-31-31 0 0 31-56 0 0 19z m56 6l0 29c0 7 1 14 1 14l0 0c0 0-3-8-6-13l-20-29 0-1z"/>
<glyph unicode="&#98;" d="M169 179c0 48 62 55 62 82 0 11-9 18-20 18-16 0-24-15-24-15l-18 12c0 0 12 26 44 26 23 0 43-14 43-39 0-43-60-50-60-75l62 0 0-21-88 0c-1 4-1 8-1 12z m103 37l57 84 29 0 0-79 17 0 0-20-17 0 0-34-24 0 0 34-62 0z m62 5l0 42c0 6 1 13 1 13l0 0c0 0-3-7-7-12l-31-42 0-1z m118 7l-5-16c-26-95-123-154-218-131-91 23-148 112-134 202l27-8c7-2 13 4 11 10l-30 117c-2 7-10 9-14 4l-86-84c-5-5-3-13 3-15l30-8c-22-122 53-244 176-276 128-33 258 46 293 173l5 16c1 5-2 9-6 11l-42 11c-4 2-9-1-10-6z m49 73l-44-6c-5 0-8-5-7-9l1-14c1-4 5-8 10-7l44 6c4 0 8 5 7 9l-2 14c0 4-5 8-9 7z m-34 82l-38-21c-4-3-6-8-3-12l6-12c2-4 8-5 12-3l38 22c4 2 6 7 3 11l-6 12c-3 4-8 5-12 3z m-62 64l-27-35c-3-3-2-9 1-12l11-8c3-3 9-2 12 1l27 35c3 3 2 9-1 12l-11 8c-3 3-9 2-12-1z m-81 36l-12-42c-2-5 1-10 5-11l13-4c5-1 10 1 11 6l12 42c2 4-1 9-5 11l-13 3c-5 2-9-1-11-5z m-89 2l5-43c0-5 4-8 9-8l13 1c5 1 8 5 8 10l-4 43c-1 5-5 9-10 8l-13-1c-4-1-8-5-8-10z m-83-30l20-39c3-4 8-6 12-4l12 6c4 3 6 8 3 12l-20 39c-2 4-7 6-11 4l-12-7c-4-2-6-7-4-11z"/>
<glyph unicode="&#99;" d="M260 475l-11 0c-6 0-11 5-11 11l0 1c0 14-12 25-26 25l0 0c-14 0-25-11-25-25l0-1c0-6-5-11-11-11l-12 0c-12 0-21-9-21-21l0-1c0-12 9-21 21-21l96 0c12 0 22 9 22 21l0 1c0 12-10 21-22 21z m-48 0c-6 0-11 5-11 11 0 6 5 11 11 11 6 0 11-5 11-11 0-6-5-11-11-11z m49-424l-184 0c-16 0-29 13-29 29l0 352c0 16 13 29 21 29l60 0c-1-3-1-5-1-8 0-20 16-36 36-36l96 0c20 0 36 16 36 37 0 2 0 5 0 7l44 0c24 0 37-13 37-29l0-220c-3 0-5 0-8 0-10 0-20-1-29-4l0 172-256 0 0-292 169 0c1-13 3-25 8-37z m108 139c-52 0-95-42-95-95 0-52 43-95 95-95 53 0 95 43 95 95 0 53-42 95-95 95z m63-75l-59-66c-3-3-7-5-11-5-3 0-6 1-9 3l-37 29c-6 5-7 15-2 21 5 6 14 7 21 2l25-20 50 55c5 6 14 7 20 1 6-5 7-14 2-20z m-128 141l-117 0c-5 0-8 3-8 7l0 8c0 4 3 7 8 7l117 0c4 0 7-3 7-7l0-8c0-4-3-7-7-7z m0 66l-117 0c-5 0-8 3-8 7l0 7c0 4 3 8 8 8l117 0c4 0 7-4 7-8l0-7c0-4-3-7-7-7z m-37-125l-80 0c-5 0-8 4-8 8l0 7c0 4 3 7 8 7l80 0c4 0 7-3 7-7l0-7c0-4-3-8-7-8z m-15-65l-65 0c-5 0-8 3-8 7l0 7c0 4 3 8 8 8l65 0c4 0 8-4 8-8l0-7c0-4-4-7-8-7z m-87 217l-27-30c-1-2-3-3-5-3-1 0-3 1-4 2l-17 13c-3 3-3 7-1 10 2 3 7 3 10 1l11-10 23 26c3 3 7 3 10 0 2-2 3-6 0-9z m0-65l-27-31c-1-1-3-2-5-2-1 0-3 1-4 2l-17 13c-3 3-3 7-1 10 2 3 7 3 10 1l11-10 23 26c3 3 7 3 10 0 2-2 3-6 0-9z m0-62l-27-31c-1-1-3-2-5-2-1 0-3 0-4 1l-17 14c-3 2-3 7-1 9 2 3 7 4 10 1l11-9 23 26c3 2 7 3 10 0 2-2 3-7 0-9z m0-63l-27-30c-1-2-3-3-5-3-1 0-3 1-4 2l-17 13c-3 3-3 7-1 10 2 3 7 3 10 1l11-10 23 26c3 3 7 3 10 0 2-2 3-6 0-9z"/>
<glyph unicode="&#100;" d="M28 169l-21 0c-4 0-7 3-7 7l0 278c0 4 3 7 7 7l21 0c4 0 8-3 8-7l0-278c0-4-4-7-8-7z m88 292l-36 0c-4 0-7-3-7-7l0-278c0-4 3-7 7-7l36 0c4 0 7 3 7 7l0 278c0 4-3 7-7 7z m65 0l-11 0c-4 0-7-3-7-7l0-278c0-4 3-7 7-7l11 0c4 0 7 3 7 7l0 278c0 4-3 7-7 7z m89 0l-45 0c-4 0-7-3-7-7l0-145c15 21 35 38 59 49l0 96c0 4-3 7-7 7z m51 0l0 0c-4 0-7-3-7-7l0-85c5 1 10 2 15 2l0 83c0 4-3 7-8 7z m42 0l-5 0c-4 0-8-3-8-7l0-84c7 0 13-2 20-3l0 87c0 4-3 7-7 7z m53 0l-23 0c-4 0-8-3-8-7l0-92c14-5 27-12 38-21l0 113c0 4-3 7-7 7z m88-362l-60 60c12 20 20 43 20 68 0 71-58 128-128 128-70 0-128-57-128-128 0-70 58-128 128-128 25 0 48 8 68 20l60-60c6-5 13-8 20-8 7 0 14 3 20 8 11 11 11 29 0 40z m-256 128c0 49 40 88 88 88 48 0 88-39 88-88 0-48-40-88-88-88-48 0-88 40-88 88z"/>
<glyph unicode="&#101;" d="M469 332l-18 0c-5 0-5 3-5 5-10 91-88 163-181 163l-18 0c-93 0-170-71-180-161-1-2-1-7-5-7l-19 0c-13 0-43-13-43-81l0-36c0-50 30-62 43-62l61 0c13 0 24 11 24 24l0 132c0 13-11 23-24 23 0 0-3 0-2 5 10 72 71 127 145 127l18 0c73 0 134-54 145-125 0-2 1-7-2-7-13 0-24-10-24-23l0-132c0-13 11-24 24-24l11 0c3 0 3-2 3-3-10-43-31-92-79-92l-35 0c-4 0-4 3-5 4-6 11-17 18-30 18l-32 0c-19 0-34-15-34-34 0-18 15-34 34-34l32 0c13 0 24 8 30 18 1 1 1 3 5 3l35 0c33 0 76 16 99 93 2 8 4 16 5 24 1 1 1 3 4 3l18 0c13 0 43 12 43 62l0 36c0 67-30 81-43 81z"/>
<glyph unicode="&#102;" d="M512 400l0-160c0 0-33-7-40-8-7-1-28-8-44 7-24 24-109 112-109 112 0 0-14 15-38 2-21-12-53-29-67-36-5-3-10-5-17-5-16 0-29 13-29 30 0 13 8 25 19 29 31 19 95 56 122 71 16 9 28 10 50-10 27-24 52-46 52-46 0 0 11-5 21-4 19 3 80 18 80 18z m-338-272c4 11 2 23-6 32-7 7-17 9-27 7 3 10 1 21-6 28-7 8-17 10-27 8 3 10 1 20-6 28-11 12-30 12-43-1-13-13-21-35-10-49 12-13 25-5 34-3-2-10-10-19 0-33 10-13 24-5 34-2-3-11-11-21-1-33 10-13 26-6 36-3-4-11-13-22-1-36 11-13 37-7 50 6 12 12 14 32 2 44-7 8-19 10-29 7z m231 84c-91 95-48 50-98 101 0 0-14 16-34 7-14-6-31-15-45-21-14-8-27-11-30-11-28 0-51 24-51 53 0 19 10 36 24 45 21 15 68 41 68 41 0 0-15 19-46 19-31 0-97-45-97-45 0 0-19-12-45-1l-51 18 0-184c0 0 15-4 28-10 3 9 7 17 14 24 22 21 58 22 77 1 6-7 11-15 13-23 8-3 15-7 21-13 6-7 10-14 12-23 8-2 15-7 21-13 6-7 11-15 13-25 8-2 16-7 22-13 12-13 16-30 13-47 0 0 0 0 0 0 0 0 0 0 0 0 0 0 0 0 0 0 1 0 8-8 12-13 9-9 23-9 32 0 9 9 9 24 0 33 0 0-1 1-1 1 0 0 0 0 0 0-29 31-31 33-28 36 3 3 7-4 40-38 0 0 1 0 1 0 1-1 1-2 2-3 9-9 23-9 32 0 9 9 9 24 0 33-1 0-1 1-2 1 0 1-1 1-1 2-30 31-34 37-31 39 2 3 16-13 46-44 0 0 0 0 1 0 8-8 22-8 31 1 8 8 8 22 1 31 0 0 0 1-1 1-38 40-36 40-34 43 2 2 3 2 40-36 0 0 0 0 0-1 9-9 23-9 32 0 9 9 9 24 0 33 0 1-1 1-1 1z"/>
<glyph unicode="&#103;" d="M439 459c0-29-24-53-53-53-29 0-53 24-53 53 0 29 24 53 53 53 29 0 53-24 53-53z m58-213c-12 84-30 119-76 147-1 1-2 1-3 2-6 4-12 7-19 8l-13-13-13 13c0 0 0 0 0 0-6-1-13-4-18-8-1 0-1 0-1 0-8-4-85-52-74-95 6-24 31-31 52-32l0-27c0-6 1-11 3-16 0-1-1-2-1-3l0-197c0-13 11-24 25-24 13 0 24 11 24 24l0 169c1 0 2 0 3 0 0 0 0 0 0 0l0-169c0-13 11-24 25-24 13 0 24 11 24 24l0 196c3 6 5 12 5 20l0 70c7-16 12-39 17-71 1-10 10-18 20-18 1 0 2 1 3 1 11 1 19 12 17 23z m-165 63c-6 1-9 2-11 2 1 4 5 10 11 16z m114 33l-40-86c-1-4-6-6-10-6-2 0-4 0-5 1l-36 16c1 0 2 0 2 0 3 1 6 1 9 3 0-1 1-3 2-3l23-11c1 0 3-1 4-1 1 0 2 0 3 1 3 1 5 2 6 5l36 78c1 2 1 5 0 7-1 3-3 5-5 6l-52 24c-5 2-11 0-13-5l-26-57c-1-2 0-4 2-5 2-1 4 0 5 2l26 57c1 1 2 1 3 0l52-23c0-1 1-1 1-2 0 0 0 0 0-1l-36-78c0-1-1-1-1-1-1 0-1 0-2 0l-23 11c0 0 0 0 0 0 4 4 6 9 6 15-1 11-10 20-21 19-9 0-15 0-20 1l32 68c1 4 6 7 10 7 2 0 4 0 5-1l2-1 1 6 0 0 1-7 52-24c6-3 9-10 7-15z m-125-93l-9 7c-19 8-30 20-36 31l-35 30 0-64-74 64 0-79-49 0-10 178-78 0-17-341 65 0 0 80 43 0 0-80 203 0 0 156c-2 6-3 12-3 18z m-249 191c2 2 5 3 8 4 3 1 6 2 9 3 3 0 6 1 7 0 1 0 1 0 1-2 1 0 1 0 1 0l1-1 0-1 1-2c0 0 1-1 1-1 3-3 6-5 9-7 3-1 7-2 10-2 3 0 6 1 8 2 5 1 9 3 12 6 3 2 6 4 8 7 5 5 8 9 9 13 2 3 3 5 3 5 0 0-3 0-6-2-2 0-4-1-6-2-2-1-5-2-8-3-2-1-5-2-8-2-3-1-6-2-8-2-3 0-4 0-5 1 0 0 0 0 0 1-1 0-1 0-1 0l0 0c0 0 0 0 0 0l-1 2c0 0-1 1-1 2-2 2-5 5-8 7-3 1-7 2-10 2-7 1-12-1-16-3-4-2-7-5-10-7-3-3-6-5-8-8-2-2-4-5-5-7-1-2-2-4-3-6-2-3-3-5-3-5 0 0 2 1 5 2 4 2 8 4 14 6z"/>
<glyph unicode="&#104;" d="M424 335l-107 1c1 2 3 4 5 5 7 6 8 16 3 23-6 7-16 8-23 3-10-8-18-19-22-31l-48 0c-21 0-43-16-50-37l-37-103c-4-11-3-21 3-29 5-8 14-12 24-12l98 0c-3-11-10-21-20-27-11-6-23-8-35-5-9 2-18-3-20-12-2-9 3-17 12-20 6-1 13-2 19-2 14 0 28 4 41 11 18 11 30 28 35 49 1 2 1 4 1 6l61 0 0 0c6 0 13 2 19 4 0-1 1-2 1-3 8-10 10-22 8-35-2-12-8-22-19-30-7-5-9-15-3-22 3-5 8-7 13-7 3 0 6 1 9 3 17 12 29 30 32 51 4 21-1 42-13 59-1 1-3 2-4 3 3 4 5 9 7 13l36 103c4 11 3 22-2 30-6 7-14 11-24 11z m14-36l-36-103c-3-6-7-12-12-16 0-1-1-1-2-1-1-1-3-3-3-4-7-4-14-7-21-7l0-7 0 7-72 0c-1 0-1 0-2 1-3 0-6 0-8-1l-65 0 3 7c1 4-1 7-4 9-4 1-7-1-9-4l-4-12-31 0c-6 0-11 2-13 6-4 5-4 11-1 18l36 103c6 15 23 28 38 28l26 0-4-12c-1-4 1-7 4-8 1-1 1-1 2-1 3 0 5 2 6 4l6 16c0 0-1 0 0 1l5 0c-2-17 3-34 13-47 13-17 32-26 52-26 14 0 27 5 39 14 7 5 9 15 3 22-5 7-15 9-22 3-15-11-35-8-46 6-6 7-8 16-7 25 0 1 1 2 1 3l113-1c7 0 11-2 14-6 3-4 4-11 1-17z m-204-63c-3 1-7 0-8-4l-9-26c-1-3 0-7 4-8 0-1 1-1 2-1 2 0 5 2 6 5l9 26c1 3 0 7-4 8z m19 53c-3 1-7-1-8-4l-10-27c-1-3 1-7 4-8 1 0 2 0 2 0 3 0 6 1 7 4l9 26c1 4-1 7-4 9z m251 27l-32 0c-3 0-6-3-6-7 0-3 3-6 6-6l32 0c4 0 7 3 7 6 0 4-3 7-7 7z m-26 21c1 0 3 1 4 2l26 19c3 2 3 6 1 9-2 3-6 3-9 1l-26-19c-3-2-3-6-1-9 1-2 3-3 5-3z m-24 53c-4 1-7-1-8-4l-11-30c-1-4 0-8 4-9 0 0 1 0 2 0 2 0 5 2 6 4l11 31c1 3-1 7-4 8z m-416-97l120 0c3 0 6 3 6 7 0 3-3 6-6 6l-120 0c-3 0-6-3-6-6 0-4 3-7 6-7z m111-40c0 4-3 7-7 7l-120 0c-3 0-6-3-6-7 0-3 3-6 6-6l120 0c4 0 7 3 7 6z m-23-40l-120 0c-3 0-6-3-6-6 0-4 3-7 6-7l120 0c4 0 7 3 7 7 0 3-3 6-7 6z m242 238c26 0 46-21 46-46 0-26-20-47-46-47-26 0-46 21-46 47 0 25 20 46 46 46z"/>
<glyph unicode="&#105;" d="M154 102c-29 0-52-23-52-51 0-28 23-51 52-51 28 0 51 23 51 51 0 28-23 51-51 51z m-154 410l0-51 51 0 92-195-35-61c-3-8-6-18-6-26 0-28 23-51 52-51l307 0 0 51-297 0c-3 0-5 3-5 5l0 3 23 43 189 0c21 0 36 11 44 26l92 166c5 6 5 8 5 13 0 16-10 26-26 26l-378 0-24 51z m410-410c-29 0-52-23-52-51 0-28 23-51 52-51 28 0 51 23 51 51 0 28-23 51-51 51z"/>
<glyph unicode="&#106;" d="M355 510c-87 0-157-55-157-124 0-41 25-77 63-100-4-20-16-45-32-62 41 3 77 15 100 39 9-1 17-1 26-1 87 0 157 55 157 124 0 69-70 124-157 124z m-74-149c-14 0-25 11-25 25 0 14 11 25 25 25 14 0 25-11 25-25 0-14-11-25-25-25z m74 0c-14 0-25 11-25 25 0 14 11 25 25 25 13 0 24-11 24-25 0-14-11-25-24-25z m73 0c-13 0-24 11-24 25 0 14 11 25 24 25 14 0 25-11 25-25 0-14-11-25-25-25z m-104-261c-50 40-64 20-86-3-16-15-56 18-90 52-35 35-68 75-52 90 22 23 42 37 2 87-40 50-67 11-89-11-25-25-1-119 92-212 93-93 188-117 213-92 22 22 60 49 10 89z m-262 199c0-1-1-1-3-1-2-1-5-2-8-4-2 0-3-1-5-2-1-1-3-2-4-3-2-2-3-3-4-5-1-2-3-4-3-6-1-2-2-5-2-7-1-2-1-5-1-7 0-5 0-10 1-14 0-5 1-8 1-11 1-2 1-3 1-3 0 0-1 1-2 3-1 2-3 5-5 9-2 4-4 9-6 14-1 3-2 6-2 9-1 3-1 6-1 10 0 3 1 7 1 10 1 3 2 7 4 10 1 3 3 6 5 8 2 3 4 5 6 7 4 3 7 6 9 8 1 0 1 1 2 1 0 1 0 1 0 1l17-27c0 0 0 0-1 0z m257-254c-2-2-5-6-8-9-2-2-4-4-6-6-3-2-5-3-8-5-3-2-6-3-10-4-3-1-6-2-9-2l-5-1-5 1c-3 0-6 1-9 1-3 1-5 2-8 2-2 1-4 2-7 3-4 2-7 3-9 5-2 1-3 2-3 2 0 0 1-1 4-1 2 0 6-1 10-1 2 0 4-1 6 0 3 0 5 0 8 0 2 1 4 1 7 2l3 1 4 1c8 4 13 12 15 18 2 3 3 6 3 8 1 2 2 3 2 3l27-15c0 0-1-1-2-3z"/>
<glyph unicode="&#107;" d="M67 86c0 0 0 0 0-1 0-1 0-2 0-2 0-1 0-1 0-1 1-1 1-2 2-3 0 0 0 0 0 0l70-76c1-1 2-1 3-2l0-1 301 0 0 213 27 0-26 85-1 0 0 3 0 0c-1 2-2 3-3 4l-76 69c0 0 0 0 0 0-1 1-2 2-3 2 0 0 0 0 0 0-1 0-2 1-3 1 0 0 0 0 0 0l-41 0 22 22c11 11 8 20 7 24-2 4-7 12-22 12l-15 0 0 44c0 18-15 33-33 33l-38 0c-18 0-33-15-33-33l0-44-15 0c-15 0-20-8-22-12-1-4-4-13 7-24l22-22-130 0-25-67 25-29z m0 239l7 20 13-13 50-48-21-34-29 34-20 25-5 5z m376-94l-20 0-239 0-13 49 252 0 8 0 12-40 3-9z m-20-210l-260 0 0 221 7-29 253 0z m-191 458c0 4 3 6 6 6l38 0c3 0 6-2 6-6l0-70 29 0-32-32-18-18c-1-2-3-2-4-2-1 0-3 0-4 2l-50 50 29 0c0 0 0 70 0 70z m-113-259l23 38 0-228-55 60 0 167z m89-79l16 0 0-32c0-6 4-11 10-11l21 0c6 0 11 5 11 11l0 32 16 0c6 0 7 3 3 7l-33 33c-4 4-11 4-15 0l-32-33c-4-4-3-7 3-7z m98 0l16 0 0-32c0-6 4-11 10-11l21 0c6 0 11 5 11 11l0 32 16 0c6 0 7 3 3 7l-33 33c-4 4-11 4-15 0l-32-33c-4-4-3-7 3-7z m-104-98l181 0c7 0 14 6 14 14 0 7-7 14-14 14l-181 0c-8 0-14-7-14-14 0-8 6-14 14-14z"/>
<glyph unicode="&#108;" d="M460 276c-15-17-30-36-40-61-5-12-17-20-29-20-13 0-25 8-30 20-12 30-30 50-48 70-5 4-9 9-13 15-1-1-1-1-1-1-17-5-31-28-23-47 6-13 44-10 41-38-3-23 27-29 37-27 11 1 27-18 19-26-8-8-23-8-21-29 0-7 19-6 19-15 0-9-10-20-2-31 1-2 3-4 5-5-36-33-83-53-135-53-110 0-199 89-199 199 0 33 9 65 23 92 0-36 19-65 28-74 29-29 72-20 77-44 5-25-29-25-27-44 3-18 47-23 37-40-13-23 9-25 3-53-4-15 19-18 27-7 6 9 5 20 18 34 15 16 51 19 47 46-7 45-51 52-70 63-22 12-16 41-21 54-7 20-29-5-41 6-20 19 4 45 20 44 35-1 45-35 58-33 13 1 21 18 23 27 5 20-8 11-13 22-7 14 24 27 36 38 1 1 3 3 3 4 4 7-1 12-9 17-15 10-44 17-45 32-1 9 16 14 36 14 4 0 7 0 10 0 2 9 4 18 8 27-9 1-19 2-29 2-125 0-227-102-227-227 0-125 102-227 227-227 125 0 227 102 227 227 0 17-2 33-6 49z m-80 235c-64-6-108-68-97-131 11-64 71-84 100-156 3-7 12-7 15 0 32 80 102 95 102 179 0 64-55 115-120 108z m11-166c-32 0-58 26-58 58 0 32 26 57 58 57 31 0 57-25 57-57 0-32-26-58-57-58z"/>
<glyph unicode="&#109;" d="M328 295c-1 5-3 9-6 13l21 128c1 4-2 9-7 10l0 0c-5 1-10-2-11-6l-38-124c-9-4-15-14-15-25 0-15 13-28 28-28 3 0 6 1 8 1l78-40c5-2 10-1 13 3l0 0c2 4 1 10-2 13z m-42-4c0 8 6 14 14 14 8 0 14-6 14-14 0-7-6-14-14-14-8 0-14 7-14 14z m226 0c0-94-62-174-147-202l0 31c69 26 119 93 119 171 0 101-83 184-184 184-101 0-183-83-183-184 0-10 0-20 2-30l-29 0c-1 10-2 20-2 30 0 117 95 212 212 212 117 0 212-95 212-212z m-175-151l-65 65c-4 4-10 6-16 6l-33 0 0 12c0 10-7 17-16 17l-190 0c-10 0-17-7-17-17l0-111 344 0 0 12c0 6-3 12-7 16z m-28-2l-64 0c-1 0-2 1-2 3l0 48c0 2 1 3 2 3l12 0c1 0 2 0 2-1l51-49c2-1 1-4-1-4z m35-35l0-37c0-9-8-16-17-16l-18 0c-3 22-22 39-45 39-23 0-42-17-45-39l-90 0c-3 22-22 39-45 39-23 0-42-17-45-39l-22 0c-10 0-17 7-17 16l0 37z m-80-25c-19 0-34-16-34-35 0-19 15-34 34-34 19 0 35 15 35 34 0 19-16 35-35 35z m0-52c-9 0-17 8-17 17 0 10 8 18 17 18 10 0 17-8 17-18 0-9-7-17-17-17z m-180 52c-19 0-35-16-35-35 0-19 16-34 35-34 19 0 34 15 34 34 0 19-15 35-34 35z m0-52c-10 0-17 8-17 17 0 10 7 18 17 18 9 0 17-8 17-18 0-9-8-17-17-17z"/>
<glyph unicode="&#110;" d="M216 231c0-15-12-26-26-26-15 0-27 11-27 26 0 14 12 26 27 26 14 0 26-12 26-26z m106 26c-14 0-26-12-26-26 0-15 12-26 26-26 15 0 27 11 27 26 0 14-12 26-27 26z m190-12l0-49c0-26-20-46-45-46l-33 0c-33-91-116-145-178-145-62 0-145 54-178 145l-33 0c-25 0-45 20-45 46l0 49c0 18 10 33 24 40 0 71 21 127 61 165 40 38 98 57 171 57 73 0 131-19 171-57 40-38 61-94 61-165 14-7 24-22 24-40z m-96-14c0 11-1 22-2 33-20 18-56 32-103 38 7-7 12-16 15-28-28 22-84 17-126 67-2 3-4 5-6 8 0 0 0 0 0 0l0 0c-8 10-10 16-10 9-2-57-42-102-87-108-1-6-1-13-1-19 0-25 4-47 11-67 25-30 67-39 104-41 7 11 22 19 40 19 25 0 44-14 44-32 0-17-19-31-44-31-18 0-34 8-41 20-26 1-54 6-79 18 35-53 90-81 125-81 54 0 160 69 160 195z m45 60c-3 124-74 189-205 189-131 0-202-65-205-189l18 0c6 42 20 76 40 102 33 42 82 64 147 64 65 0 114-22 147-64 20-26 34-60 40-102z"/>
<glyph unicode="&#111;" d="M28 403l48-21 221 104c1 1 2 2 2 4 0 2-1 4-2 4l-39 18c-2 0-3 0-4 0l-226-100c-1-1-2-3-2-5 0-1 1-3 2-4z m214-122l-85 39 0-119c0-1 0-2-1-3-1 0-1 0-2 0 0 0-1 0-1 0l-90 42c-1 1-2 2-2 3l0 120-52 25c-2 0-3 0-4-1-2-1-3-2-3-4l0-272c0-1 1-3 3-4l233-106c1 0 1-1 2-1 1 0 2 1 2 1 2 1 3 2 3 4l0 272c0 2-1 3-3 4z m265 106c-1 1-3 1-4 1l-233-107c-2-1-3-2-3-4l0-272c0-2 1-3 2-4 1 0 2-1 3-1 0 0 1 1 1 1l234 106c1 1 2 3 2 4l0 272c0 2-1 3-2 4z m-21 20c0 2-1 4-3 5l-78 34c-2 1-3 1-4 0l-226-108 79-38c1 0 1 0 2 0 0 0 1 0 2 0l225 103c2 1 3 3 3 4z"/>
<glyph unicode="&#112;" d="M190 198c-24 0-43-19-43-43 0-23 19-43 43-43 23 0 42 20 42 43 0 24-19 43-42 43z m0-64c-12 0-22 9-22 21 0 12 10 22 22 22 12 0 21-10 21-22 0-12-9-21-21-21z m322 96l0-46c0-11-9-21-21-21l-22 0c-4 28-27 49-56 49-28 0-52-21-56-49l-111 0c-4 28-28 49-56 49-29 0-52-21-56-49l-28 0c-11 0-20 10-20 21l0 46z m-99-32c-23 0-42-19-42-43 0-23 19-43 42-43 24 0 43 20 43 43 0 24-19 43-43 43z m0-64c-11 0-21 9-21 21 0 12 10 22 21 22 12 0 22-10 22-22 0-12-10-21-22-21z m91 142l-81 80c-5 5-12 8-19 8l-41 0 0 15c0 11-10 21-21 21l-236 0c-11 0-20-10-20-21l0-3-84-10 148-19-150-15 150-21-150-13 86-17 0-40 426 0 0 15c0 7-3 14-8 20z m-35-3l-79 0c-2 0-3 1-3 3l0 61c0 1 1 3 3 3l15 0c1 0 2 0 2-1l64-61c2-2 0-5-2-5z"/>
<glyph unicode="&#113;" d="M248 386l0-36c0-19-56-34-124-34-69 0-124 15-124 34l0 36c0-19 55-34 124-34 68 0 124 15 124 34z m0 7c0-19-56-34-124-34-69 0-124 15-124 34 0 18 55 33 124 33 68 0 124-15 124-33z m-64 1l-109 8-4-7 4 0c6-1 13-3 10-9l-1-1 20-2 1 2c1 3 1 5 1 7l73-5z m-60-87c-69 0-124 15-124 33l0-36c0-18 55-33 124-33 68 0 124 15 124 33l0 36c0-18-56-33-124-33z m0-46c-69 0-124 15-124 34l0-36c0-19 55-34 124-34 68 0 124 15 124 34l0 36c0-19-56-34-124-34z m0-45c-69 0-124 16-124 34l0-36c0-18 55-34 124-34 68 0 124 16 124 34l0 36c0-18-56-34-124-34z m0-44c-69 0-124 15-124 34l0-36c0-19 55-34 124-34 68 0 124 15 124 34l0 36c0-19-56-34-124-34z m0-44c-69 0-124 15-124 34l0-36c0-19 55-34 124-34 68 0 124 15 124 34l0 36c0-19-56-34-124-34z m141 255l1 0 0-1c20-3 43-5 69-5 68 0 123 15 123 34l0 36c0-19-55-34-123-34-69 0-124 15-124 34l0-14c29-7 55-20 55-43 0-2 0-4-1-7z m-54 70c0 19 55 34 124 34 68 0 123-15 123-34 0-18-55-33-123-33-69 0-124 15-124 33z m64-2l109-7 3 7-4 0c-5 1-12 3-9 9l1 1-20 2-1-2c-2-3-2-5-1-7l-74 5z m60-120c68 0 123 16 123 34l0 36c0-18-55-33-123-33-26 0-49 2-69 5l0-26c0-3-1-6-2-9l2 0 0-1c20-3 43-6 69-6z m-69-38l0-1c20-4 43-6 69-6 68 0 123 15 123 34l0 36c0-19-55-34-123-34-26 0-49 2-69 6l0-26c0-3-1-6-2-9z m192-15l0 33c0-11-20-21-51-27 14-1 33-2 51-6z m-192-17c12 8 30 13 48 17-17 1-34 2-48 5z m122-65c-68 0-124 15-124 34l0-36c0-19 56-34 124-34 69 0 124 15 124 34l0 36c0-19-55-34-124-34z m0 75c69 0 124-16 124-34 0-19-55-34-124-34-68 0-124 15-124 34 0 18 56 34 124 34z m18-33l-73 5-5-8 109-8 4 7-4 1c-6 0-13 2-9 8l1 2-20 1-1-2c-2-2-2-4-2-6z m-18-87c-68 0-124 15-124 34l0-36c0-19 56-34 124-34 69 0 124 15 124 34l0 36c0-19-55-34-124-34z m0-46c-68 0-124 16-124 34l0-36c0-18 56-34 124-34 69 0 124 16 124 34l0 36c0-18-55-34-124-34z m0-44c-68 0-124 15-124 34l0-37c0-18 56-33 124-33 69 0 124 15 124 33l0 37c0-19-55-34-124-34z"/>
<glyph unicode="&#114;" d="M260 475l-11 0c-6 0-11 5-11 11l0 1c0 14-12 25-26 25l0 0c-14 0-25-11-25-25l0-1c0-6-5-11-11-11l-12 0c-12 0-21-9-21-21l0-1c0-12 9-21 21-21l96 0c12 0 22 9 22 21l0 1c0 12-10 21-22 21z m-48 0c-6 0-11 5-11 11 0 6 5 11 11 11 6 0 11-5 11-11 0-6-5-11-11-11z m49-424l-184 0c-16 0-29 13-29 29l0 352c0 16 13 29 21 29l60 0c-1-3-1-5-1-8 0-20 16-36 36-36l96 0c20 0 36 16 36 37 0 2 0 5 0 7l44 0c24 0 37-13 37-29l0-220c-3 0-5 0-8 0-10 0-20-1-29-4l0 172-256 0 0-292 169 0c1-13 3-25 8-37z m108 139c-52 0-95-42-95-95 0-52 43-95 95-95 53 0 95 43 95 95 0 53-42 95-95 95z m63-75l-59-66c-3-3-7-5-11-5-3 0-6 1-9 3l-37 29c-6 5-7 15-2 21 5 6 14 7 21 2l25-20 50 55c5 6 14 7 20 1 6-5 7-14 2-20z m-128 141l-191 0c-4 0-7 3-7 7l0 8c0 4 3 7 7 7l191 0c4 0 7-3 7-7l0-8c0-4-3-7-7-7z m0 66l-191 0c-4 0-7 3-7 7l0 7c0 4 3 8 7 8l191 0c4 0 7-4 7-8l0-7c0-4-3-7-7-7z m-37-125l-154 0c-4 0-7 4-7 8l0 7c0 4 3 7 7 7l154 0c4 0 7-3 7-7l0-7c0-4-3-8-7-8z m-15-65l-139 0c-4 0-7 3-7 7l0 7c0 4 3 8 7 8l139 0c4 0 8-4 8-8l0-7c0-4-4-7-8-7z"/>
<glyph unicode="&#115;" d="M501 414l-56 70c-5 7-13 11-21 11l-290 0c-8 0-16-4-21-11l-56-70c-6-7-11-21-11-31l0-52c4 7 11 13 19 15 0 6 2 12 5 17 5 9 14 15 24 18 3 1 7 1 10 1 13 0 25-6 33-17 2 0 4 1 6 1 6 0 13-2 18-5l31 8c4 1 8 1 12 1 21 0 40-14 46-35l60-234c3-12 2-24-5-35-6-11-16-19-28-22l-28-7 228 0c19 0 35 16 35 35l0 312c0 9-5 23-11 30z m-426 1l18 23 127 0 12 21-122 0 13 17c3 3 7 5 11 5l290 0c4 0 8-2 11-5l13-17-125 0 7-21 135 0 18-23z m6-86l-8-2c-9-2-14-11-11-19l0 0c2-9 10-14 19-12l66 18c8 2 13 10 11 19l0 0c-2 8-11 13-19 11l-8-2c-4-1-8 2-9 6l0 0c-3 10-13 16-23 13l0 0c-10-3-15-13-13-22l0-1c1-4-1-8-5-9z m21 22c4 1 8-2 9-6 2-4-1-8-5-9-4-2-9 1-10 5-1 4 2 9 6 10z m98-240c0-3-1-6-4-7l-97-25c-2-1-5 1-6 4l-1 5c-1 3 1 6 3 6l97 25c3 1 6-1 6-3z m11 100l2-5c0-3-1-6-4-6l-132-35c-3 0-6 1-6 4l-2 5c-1 3 1 6 4 7l132 34c3 1 6-1 6-4z m-14 34l-132-34c-3-1-6 1-6 4l-2 5c0 3 1 6 4 6l132 35c3 0 6-1 6-4l2-5c1-3-1-6-4-7z m-3-92l-107-28c-2-1-5 1-6 4l-1 5c-1 2 1 5 4 6l106 28c3 0 6-1 7-4l1-5c1-3-1-6-4-6z m96-57l-61 234c-3 14-18 22-32 18l-31-8c1-1 2-3 2-4 4-15-5-29-18-32l-66-17c-13-4-27 3-32 16-1 2-1 5-1 7l-31-8c-14-3-23-18-19-32l61-233c3-14 18-23 32-19l177 46c14 4 23 18 19 32z m-203-53l-53 203 178 47 53-203z"/>
<glyph unicode="&#116;" d="M242 352l-30-74c-2-2-4-4-7-4l-155-14c-3 0-6-4-6-7l3-122c0-3 2-6 6-7l182-38c5-1 9-2 14-2l0 36 0 230c0 10-3 11-7 2z m-21-227l-69 11 0 36 69 0z m-30 166l-183-18c-6-1-10 5-7 10l48 104c1 2 3 3 6 4l200 37-58-133c-2-2-4-4-6-4z m271-31l-155 14c-3 0-5 2-7 4l-30 74c-4 9-7 8-7-2l0-266c5 0 9 1 14 2l182 38c4 1 6 4 6 7l3 122c0 3-3 7-6 7z m-64-65l-9 0 0-54c0-3-2-5-5-5l-14-2c-4-1-6 1-6 3l0 57-10 0c-5 0-8 3-5 7l23 30c2 3 8 3 10 0l20-30c2-2 0-6-4-6z m106 78l-183 18c-2 0-4 2-6 4l-58 133 200-37c3-1 5-2 6-4l48-104c3-5-1-11-7-10z"/>
<glyph unicode="&#117;" d="M452 316l-52 66c-5 6-13 10-21 10l-17 0-15-13 32 0c4 0 8-2 10-5l46-58-358 0 46 58c2 3 6 5 10 5l32 0-15 13-17 0c-8 0-16-4-21-10l-52-66c-6-7-10-20-10-29l0-254c0-18 14-33 33-33l346 0c19 0 33 15 33 33l0 254c0 9-4 22-10 29z m-95-165l21 35c2 4 7 4 9 0l20-35c2-4 0-8-4-8l-9 0 0-66c0-3-2-5-5-5l-13 0c-3 0-5 2-5 5l0 66-9 0c-4 0-7 4-5 8z m-78 0l20 35c2 4 7 4 9 0l20-35c3-4 0-8-4-8l-9 0 0-66c0-3-2-5-5-5l-13 0c-3 0-5 2-5 5l0 66-9 0c-4 0-6 4-4 8z m138-109c0-1-1-3-2-3l-145 0c-2 0-3 2-3 3l0 8c0 1 1 3 3 3l145 0c1 0 2-2 2-3z m-107 400l63 0c6 0 9-7 5-11l-118-100c-2-2-6-2-8 0l-118 100c-4 4-1 11 5 11l63 0c3 0 6 3 6 7l0 56c0 4 3 7 7 7l82 0c4 0 7-3 7-7l0-56c0-4 3-7 6-7z"/>
<glyph unicode="&#118;" d="M40 200l300 0 0-41-218 0c-7 17-24 30-44 30-20 0-37-12-44-30-8 3-14 10-14 19l0 2c0 11 9 20 20 20z m71-53c0-19-16-34-35-34-19 0-34 15-34 34 0 19 15 35 34 35 19 0 35-16 35-35z m-11 0c0 14-10 24-24 24-13 0-24-10-24-24 0-13 11-24 24-24 14 0 24 11 24 24z m361 0c0-19-15-34-34-34-19 0-35 15-35 34 0 19 16 35 35 35 19 0 34-16 34-35z m-10 0c0 14-11 24-24 24-14 0-24-10-24-24 0-13 10-24 24-24 13 0 24 11 24 24z m61 100l0-79c0-3-3-6-7-6l-34 0c-8 16-24 27-43 27-19 0-35-11-42-27l-24 0c-3 0-6 3-6 6l0 158c0 4 3 6 6 6l88 0c3 0 9-1 13-6z m-31 17l-30 50c-2 4-5 6-15 6l-54 0c-4 0-7-3-7-6l0-50c0-4 3-7 7-7l92 0c4 0 7 3 7 7z m26-75c0 3-3 6-6 6-4 0-7-3-7-6l0-12c0-3 3-6 7-6 3 0 6 3 6 6z m-507 23l340 0 0 188-340 0z"/>
<glyph unicode="&#119;" d="M438 150l-106-51-41 85 106 51z m-26 215l87-180-53-26-87 181z m-47-280l147 68-3 15-159-74c-8 2-16 3-25 1-1-1-2-1-4-2l-109 207c14 15 1 47-26 44-2-1-3-1-5-1-25 2-50 10-73 22 0 3 0 5-1 8-1 22-14 41-37 42-20 1-44-16-43-37 4-52 4-65 3-114l0 0c0-7 0-17 1-24 0-10 4-18 9-25 0 0 0 0 0 0 7-10 6-20 11-30-9-45-39-90-50-134-8-32 42-46 50-13 11 44 47 89 56 134 1 2 1 4 1 6 31-32 52-84 56-130 3-33 55-33 52 0-7 76-46 150-105 196 0 4-1 8-1 12l0 0c0 31 1 20 0 51 21-8 44-13 67-15l0-1c8 0 13 1 21 2 1 0 2 1 4 1l106-208c-13-11-20-28-16-45 6-24 30-39 54-33 24 6 39 30 33 54-2 9-7 17-14 23z m-26-48c-8-2-16 3-18 11-2 8 3 16 11 18 8 2 16-3 18-11 2-8-3-16-11-18z m11 294l41-85-106-51-41 85z m-281 174c21 0 39-17 39-39 0-21-18-39-39-39-22 0-39 18-39 39 0 22 17 39 39 39z"/>
<glyph unicode="&#120;" d="M309 283l30 40c2 4 9 3 12-1l27-42c2-4-1-8-6-8l-11 0 0-74c0-4-3-6-7-7l-18-1c-4 0-8 2-8 6l0 77-12 0c-6 1-10 6-7 10z m109-13l9 0 0-68c0-3 3-6 6-5l14 1c3 0 6 2 6 5l0 66 8 0c5 0 7 4 5 8l-21 36c-2 4-7 5-10 1l-22-35c-3-4 0-9 5-9z m-122-114l177 18c2 0 3 2 3 3l0 8c0 1-1 2-3 2l-177-15c-2 0-4-2-4-3l0-10c0-2 2-3 4-3z m216 231l0-300c0-18-13-34-31-37l-219-33c-4-1-8-1-12 0l-112 17 0 117-40-8 0-103-67 10c-18 3-31 19-31 37l0 300c0 16 10 30 25 35l73 24 0-90 40 8 0 95 107 35c7 2 15 2 22 0l220-72c15-5 25-19 25-35z m-28 6l-200 66 0-411 200 31z"/>
<glyph unicode="&#121;" d="M282 408l-39 0 0-19-19 0 0 19-39 0c-14 0-26-11-26-26l0-60 45-42c3-3 5-6 7-9l71 0c14 0 26 11 26 26l0 85c0 15-12 26-26 26z m-37-74l0-38-23 0 0 38c-16 0-16 0-16 0l28 32 27-33c0 0 0 1-16 1z m-235 125c0 29 24 53 53 53 29 0 53-24 53-53 0-29-24-53-53-53-29 0-53 24-53 53z m183-216c-3-4-8-5-13-5-4 0-8 1-11 4l-72 67 0-102c0-11-5-21-13-27l39-159c2-9-3-18-13-21-1 0-2 0-4 0-8 0-15 5-17 13l-22 91-12-87c-2-9-10-16-20-15-9 2-16 11-14 20l22 157c-9 6-15 16-15 28l0 134c0 19 16 35 35 35 4 0 8-1 12-3 3 0 6-2 9-4l108-101c7-7 8-18 1-25z m256 163c-29 0-53 24-53 53 0 29 24 53 53 53 29 0 53-24 53-53 0-29-24-53-53-53z m-129-138l108 101c3 2 6 4 9 4 4 2 8 3 12 3 19 0 35-16 35-35l0-134c0-12-6-22-15-28l22-157c2-9-5-18-14-20-10-1-18 6-20 15l-12 87-22-91c-2-8-9-13-17-13-2 0-3 0-4 0-10 3-15 12-13 21l39 159c-8 6-13 16-13 27l0 102-72-67c-3-3-7-4-11-4-5 0-10 1-13 5-7 7-6 18 1 25z"/>
<glyph unicode="&#122;" d="M422 315c2-6-1-14-7-16 0 0-123-50-123-51-3-1-5-1-8-1-7 0-14 3-18 9l-61 93c-6 9-3 22 6 29 10 6 23 3 29-6l61-93 104 43c7 2 14-1 17-7z m-138 181c-77 0-146-39-187-98 9-5 17-13 25-23 31 46 81 79 138 86l24-40 23 40c89-11 159-81 170-170l-40-24 40-23c-7-59-41-110-89-141 3-7 5-14 5-21 0-6 0-11-2-16 72 39 121 115 121 201 0 126-102 229-228 229z m58-376c-53 42-67 21-91-2-17-17-59 18-95 54-37 36-72 79-55 95 24 24 45 39 3 91-43 53-71 13-94-10-27-27-1-127 97-225 98-98 197-123 224-97 23 23 64 52 11 94z m-276 210c-1 0-2-1-3-1-3-1-6-2-9-4-2-1-4-1-5-2-2-1-3-2-5-4-2-1-3-3-4-5-1-2-3-4-3-6-2-2-2-5-3-7 0-3 0-6-1-8 0-5 1-11 1-15 1-4 2-8 2-11 1-2 1-4 1-4 0 0-1 2-2 4-1 2-4 5-6 9-2 5-4 10-6 15-1 3-2 6-2 10-1 3-1 6-1 10 0 3 1 7 1 11 1 3 2 7 4 10 2 3 4 6 6 9 2 3 4 5 6 7 4 4 7 6 9 8 1 1 2 2 2 2 1 0 1 1 1 1l18-29c0 0-1 0-1 0z m270-268c-1-2-4-6-8-10-2-1-4-3-7-5-2-2-5-4-8-6-3-2-6-3-10-4-3-1-7-2-10-2l-5-1-5 0c-4 1-7 1-10 2-3 0-5 2-8 2-3 1-5 2-7 3-4 2-7 4-10 5-2 1-3 2-3 2 0 0 1 0 4-1 2 0 6-1 10-1 2 0 5 0 7 0 3 0 5 0 8 0 2 1 5 1 7 2l4 1 4 2c9 4 13 12 16 18 2 4 3 7 3 9 1 2 2 4 2 4l29-17c0 0-1-1-3-3z"/>
<glyph unicode="&#65;" d="M432 230l79-162c3-7 0-12-8-12l-494 0c-8 0-11 5-8 12l79 162c1 2 5 4 8 4l67 0c2 0 5-1 6-3 5-5 10-10 14-15 5-5 9-10 14-15l-81 0c-2 0-6-2-7-5l-52-107 414 0-52 107c-1 3-5 5-7 5l-81 0c5 5 9 10 14 15 4 5 9 10 13 15 2 2 5 3 7 3l67 0c3 0 7-2 8-4z m-60 110c0-88-74-105-108-190-3-7-13-7-16 0-31 77-94 98-106 166-12 67 35 133 103 140 69 6 127-48 127-116z m-55 0c0 34-27 62-61 62-34 0-61-28-61-62 0-34 27-61 61-61 34 0 61 27 61 61z"/>
<glyph unicode="&#66;" d="M34 424c-10 29 6 60 35 70 29 9 60-7 70-36l108-329c-10 3-21 3-31 1l-106 319c-4 13-19 21-32 16-13-4-21-19-16-32 2-8-2-16-10-19-7-2-16 2-18 10z m428-259l-178-58c6-8 11-16 14-26 0 0 0 0 0-1l173 57c8 3 12 11 9 19-2 8-10 12-18 9z m-178-88c10-31-6-64-37-74-31-10-64 6-74 37-10 31 7 64 37 74 31 10 64-7 74-37z m-28-10c-5 16-21 24-36 19-16-5-24-22-19-37 5-15 22-23 37-18 15 5 23 21 18 36z m161 322l60-183c1-4-1-9-5-10l-190-63c-4-1-8 1-9 5l-61 183c-1 4 1 8 5 10l190 62c4 2 8 0 10-4z m-25-107l-65 36-31-67 20-10 14 29 24-73 23 8-24 73 28-15z m-57 110l-39 117c0 2-3 4-6 3l-33-11 0 0 0 0-18-6 15-44-20-6-14 43-18-5 0-1 0 0-33-10c-3-1-4-4-3-6l38-118c1-2 4-3 6-3l122 41c3 0 4 3 3 6z"/>
<glyph unicode="&#67;" d="M93 319l326 0 0-319 92 0 0 393-262 119-248-119 0-393 92 0z m98-257l58 0 0-50-58 0z m71 0l58 0 0-50-58 0z m-142 0l58 0 0-50-58 0z m71 69l58 0 0-50-58 0z m-71 0l58 0 0-50-58 0z m142 0l58 0 0-50-58 0z m-71 68l58 0 0-50-58 0z m-71 0l58 0 0-50-58 0z m213-137l58 0 0-50-58 0z"/>
<glyph unicode="&#68;" d="M497 300l-222 166c-11 9-27 9-38 0l-90-67 0 16c0 18-14 32-32 32l-29 0c-18 0-32-14-32-32l0-86-41-30c-11-9-16-23-11-36 4-13 16-22 30-22l22 0 0-170c0-17 14-32 32-32l340 0c18 0 32 15 32 32l0 170 22 0c0 0 0 0 0 0 18 0 32 14 32 32 0 12-6 22-15 27z m-160-111c0-37-25-59-61-63l0-15c0-11-9-20-20-20-11 0-20 9-20 20l0 16c-18 4-37 11-53 23-5 3-8 10-8 17 0 12 9 21 21 21 6 0 10-2 13-4 16-12 33-19 53-19 19 0 30 7 30 20l0 0c0 12-7 18-42 26-42 11-68 23-68 64l0 0c0 32 22 55 54 61l0 16c0 10 9 19 20 19 11 0 20-9 20-19l0-16c16-3 31-8 44-16 5-3 10-10 10-19 0-11-10-21-21-21-5 0-8 2-12 4-15 9-29 14-44 14-17 0-26-8-26-18l0-1c0-14 9-18 45-27 42-11 65-26 65-62l0-1z"/>
</font>
</defs>
</svg>
